<?xml version="1.0" encoding="UTF-8" standalone="no"?>
<!-- Created with Inkscape (http://www.inkscape.org/) -->

<svg
   xmlns:dc="http://purl.org/dc/elements/1.1/"
   xmlns:cc="http://creativecommons.org/ns#"
   xmlns:rdf="http://www.w3.org/1999/02/22-rdf-syntax-ns#"
   xmlns:svg="http://www.w3.org/2000/svg"
   xmlns="http://www.w3.org/2000/svg"
   xmlns:sodipodi="http://sodipodi.sourceforge.net/DTD/sodipodi-0.dtd"
   xmlns:inkscape="http://www.inkscape.org/namespaces/inkscape"
   width="1024"
   height="1024"
   viewBox="0 0 270.93333 270.93333"
   version="1.1"
   id="svg8"
   inkscape:version="0.92.3 (2405546, 2018-03-11)"
   sodipodi:docname="keylines.svg"
   inkscape:export-filename="keylines.png"
   inkscape:export-xdpi="96"
   inkscape:export-ydpi="96">
  <defs
     id="defs2">
    <clipPath
       id="clipPath833"
       clipPathUnits="userSpaceOnUse">
      <path
         inkscape:connector-curvature="0"
         id="path831"
         d="M 0,108 H 108 V 0 H 0 Z" />
    </clipPath>
    <clipPath
       id="clipPath843"
       clipPathUnits="userSpaceOnUse">
      <path
         inkscape:connector-curvature="0"
         id="path841"
         d="M 0,108 H 108 V 0 H 0 Z" />
    </clipPath>
    <clipPath
       id="clipPath851"
       clipPathUnits="userSpaceOnUse">
      <path
         inkscape:connector-curvature="0"
         id="path849"
         d="M -0.0706177,108.071 H 108.071 V -0.0706635 H -0.0706177 Z" />
    </clipPath>
    <clipPath
       id="clipPath855"
       clipPathUnits="userSpaceOnUse">
      <path
         inkscape:connector-curvature="0"
         id="path853"
         d="M -0.0352631,108.035 H 108.035 V -0.0353088 H -0.0352631 Z" />
    </clipPath>
    <clipPath
       id="clipPath859"
       clipPathUnits="userSpaceOnUse">
      <path
         inkscape:connector-curvature="0"
         id="path857"
         d="M -0.0352631,108.035 H 108.035 V -0.0353088 H -0.0352631 Z" />
    </clipPath>
    <clipPath
       id="clipPath903"
       clipPathUnits="userSpaceOnUse">
      <path
         inkscape:connector-curvature="0"
         id="path901"
         d="M 28,80 H 80 V 28 H 28 Z" />
    </clipPath>
    <clipPath
       id="clipPath919"
       clipPathUnits="userSpaceOnUse">
      <path
         inkscape:connector-curvature="0"
         id="path917"
         d="M 36,72 H 72 V 36 H 36 Z" />
    </clipPath>
    <clipPath
       id="clipPath935"
       clipPathUnits="userSpaceOnUse">
      <path
         inkscape:connector-curvature="0"
         id="path933"
         d="M 27.9,72.1 H 80.1 V 35.9 H 27.9 Z" />
    </clipPath>
    <clipPath
       id="clipPath951"
       clipPathUnits="userSpaceOnUse">
      <path
         inkscape:connector-curvature="0"
         id="path949"
         d="M 35.9,80.1 H 72.1 V 27.9 H 35.9 Z" />
    </clipPath>
    <clipPath
       id="clipPath967"
       clipPathUnits="userSpaceOnUse">
      <path
         inkscape:connector-curvature="0"
         id="path965"
         d="M 31.9,76.1 H 76.1 V 31.9 H 31.9 Z" />
    </clipPath>
    <clipPath
       id="clipPath983"
       clipPathUnits="userSpaceOnUse">
      <path
         inkscape:connector-curvature="0"
         id="path981"
         d="M 18,90 H 90 V 18 H 18 Z" />
    </clipPath>
    <clipPath
       id="clipPath1096"
       clipPathUnits="userSpaceOnUse">
      <path
         inkscape:connector-curvature="0"
         id="path1094"
         d="M 0,108 H 108 V 0 H 0 Z" />
    </clipPath>
    <clipPath
       id="clipPath1106"
       clipPathUnits="userSpaceOnUse">
      <path
         inkscape:connector-curvature="0"
         id="path1104"
         d="M 0,108 H 108 V 0 H 0 Z" />
    </clipPath>
    <clipPath
       id="clipPath1114"
       clipPathUnits="userSpaceOnUse">
      <path
         inkscape:connector-curvature="0"
         id="path1112"
         d="M -0.0706177,108.071 H 108.071 V -0.0706635 H -0.0706177 Z" />
    </clipPath>
    <clipPath
       id="clipPath1118"
       clipPathUnits="userSpaceOnUse">
      <path
         inkscape:connector-curvature="0"
         id="path1116"
         d="M -0.0352631,108.035 H 108.035 V -0.0353088 H -0.0352631 Z" />
    </clipPath>
    <clipPath
       id="clipPath1122"
       clipPathUnits="userSpaceOnUse">
      <path
         inkscape:connector-curvature="0"
         id="path1120"
         d="M -0.0352631,108.035 H 108.035 V -0.0353088 H -0.0352631 Z" />
    </clipPath>
    <clipPath
       id="clipPath1166"
       clipPathUnits="userSpaceOnUse">
      <path
         inkscape:connector-curvature="0"
         id="path1164"
         d="M 28,80 H 80 V 28 H 28 Z" />
    </clipPath>
    <clipPath
       id="clipPath1182"
       clipPathUnits="userSpaceOnUse">
      <path
         inkscape:connector-curvature="0"
         id="path1180"
         d="M 36,72 H 72 V 36 H 36 Z" />
    </clipPath>
    <clipPath
       id="clipPath1198"
       clipPathUnits="userSpaceOnUse">
      <path
         inkscape:connector-curvature="0"
         id="path1196"
         d="M 27.9,72.1 H 80.1 V 35.9 H 27.9 Z" />
    </clipPath>
    <clipPath
       id="clipPath1214"
       clipPathUnits="userSpaceOnUse">
      <path
         inkscape:connector-curvature="0"
         id="path1212"
         d="M 35.9,80.1 H 72.1 V 27.9 H 35.9 Z" />
    </clipPath>
    <clipPath
       id="clipPath1230"
       clipPathUnits="userSpaceOnUse">
      <path
         inkscape:connector-curvature="0"
         id="path1228"
         d="M 31.9,76.1 H 76.1 V 31.9 H 31.9 Z" />
    </clipPath>
    <clipPath
       id="clipPath1246"
       clipPathUnits="userSpaceOnUse">
      <path
         inkscape:connector-curvature="0"
         id="path1244"
         d="M 18,90 H 90 V 18 H 18 Z" />
    </clipPath>
  </defs>
  <sodipodi:namedview
     id="base"
     pagecolor="#ffffff"
     bordercolor="#666666"
     borderopacity="1.0"
     inkscape:pageopacity="0.0"
     inkscape:pageshadow="2"
     inkscape:zoom="0.70710678"
     inkscape:cx="318.17231"
     inkscape:cy="495.82229"
     inkscape:document-units="px"
     inkscape:current-layer="g1086"
     showgrid="false"
     units="px"
     showguides="true"
     inkscape:guide-bbox="true"
     inkscape:snap-bbox="true"
     inkscape:bbox-paths="true"
     inkscape:window-width="1920"
     inkscape:window-height="1017"
     inkscape:window-x="-8"
     inkscape:window-y="-8"
     inkscape:window-maximized="1">
    <sodipodi:guide
       position="135.46681,135.46667"
       orientation="1,0"
       id="guide1400"
       inkscape:locked="false" />
    <sodipodi:guide
       position="135.46666,200.69135"
       orientation="0,1"
       id="guide1421"
       inkscape:locked="false" />
    <sodipodi:guide
       position="135.46973,70.246872"
       orientation="0,1"
       id="guide1423"
       inkscape:locked="false" />
    <sodipodi:guide
       position="70.251795,135.46667"
       orientation="1,0"
       id="guide1425"
       inkscape:locked="false" />
    <sodipodi:guide
       position="200.68646,135.4584"
       orientation="1,0"
       id="guide1427"
       inkscape:locked="false" />
    <sodipodi:guide
       position="90.352133,135.46667"
       orientation="1,0"
       id="guide1429"
       inkscape:locked="false" />
    <sodipodi:guide
       position="180.57812,135.46973"
       orientation="1,0"
       id="guide1431"
       inkscape:locked="false" />
    <sodipodi:guide
       position="135.46681,180.57916"
       orientation="0,1"
       id="guide1433"
       inkscape:locked="false" />
    <sodipodi:guide
       position="135.46563,90.355206"
       orientation="0,1"
       id="guide1435"
       inkscape:locked="false" />
  </sodipodi:namedview>
  <metadata
     id="metadata5">
    <rdf:RDF>
      <cc:Work
         rdf:about="">
        <dc:format>image/svg+xml</dc:format>
        <dc:type
           rdf:resource="http://purl.org/dc/dcmitype/StillImage" />
        <dc:title></dc:title>
      </cc:Work>
    </rdf:RDF>
  </metadata>
  <g
     inkscape:label="Layer 1"
     inkscape:groupmode="layer"
     id="layer1"
     transform="translate(0,-26.06668)">
    <g
       transform="matrix(2.5086419,0,0,-2.5086419,0,297.00001)"
       inkscape:label="adaptive-icon"
       id="g1086"
       style="stroke-width:0.140625">
      <path
         style="opacity:1;fill:#00b0f0;fill-opacity:1;stroke:none;stroke-width:2.99999928;stroke-linecap:butt;stroke-linejoin:round;stroke-miterlimit:4;stroke-dasharray:none;stroke-dashoffset:0;stroke-opacity:1;paint-order:stroke fill markers"
         d="M 1022.5859 0 L 0 1022.5859 L 0 1024 L 1.4140625 1024 L 1024 1.4140625 L 1024 0 L 1022.5859 0 z "
         transform="matrix(0.10546875,0,0,-0.10546875,0,108)"
         id="path1408" />
      <path
         style="opacity:1;fill:#00b0f0;fill-opacity:1;stroke:none;stroke-width:2.99999928;stroke-linecap:butt;stroke-linejoin:round;stroke-miterlimit:4;stroke-dasharray:none;stroke-dashoffset:0;stroke-opacity:1;paint-order:stroke fill markers"
         d="M 0 0 L 0 1.4140625 L 1022.5859 1024 L 1024 1024 L 1024 1022.5859 L 1.4140625 0 L 0 0 z "
         transform="matrix(0.10546875,0,0,-0.10546875,0,108)"
         id="path1410" />
      <path
         style="opacity:1;fill:none;fill-opacity:1;stroke:#00b0f0;stroke-width:0.21093749;stroke-linecap:butt;stroke-linejoin:round;stroke-miterlimit:4;stroke-dasharray:none;stroke-dashoffset:0;stroke-opacity:1;paint-order:stroke fill markers"
         d="m 89.884426,53.999996 a 35.884421,35.884421 0 0 0 -35.88443,-35.88442 35.884421,35.884421 0 0 0 -35.88442,35.88442 35.884421,35.884421 0 0 0 35.88442,35.88443 35.884421,35.884421 0 0 0 35.88443,-35.88443 z"
         id="path1412"
         inkscape:connector-curvature="0" />
      <path
         inkscape:connector-curvature="0"
         id="path1415"
         d="m 79.892581,53.999996 a 25.892579,25.892579 0 0 0 -25.89258,-25.89257 25.892579,25.892579 0 0 0 -25.89258,25.89257 25.892579,25.892579 0 0 0 25.89258,25.89258 25.892579,25.892579 0 0 0 25.89258,-25.89258 z"
         style="opacity:1;fill:none;fill-opacity:1;stroke:#00b0f0;stroke-width:0.21093749;stroke-linecap:butt;stroke-linejoin:round;stroke-miterlimit:4;stroke-dasharray:none;stroke-dashoffset:0;stroke-opacity:1;paint-order:stroke fill markers" />
      <path
         style="opacity:1;fill:none;fill-opacity:1;stroke:#00b0f0;stroke-width:0.21093749;stroke-linecap:butt;stroke-linejoin:round;stroke-miterlimit:4;stroke-dasharray:none;stroke-dashoffset:0;stroke-opacity:1;paint-order:stroke fill markers"
         d="m 71.876956,54.000001 a 17.876953,17.876953 0 0 0 -17.87695,-17.87695 17.876953,17.876953 0 0 0 -17.87696,17.87695 17.876953,17.876953 0 0 0 17.87696,17.87695 17.876953,17.876953 0 0 0 17.87695,-17.87695 z"
         id="path1417"
         inkscape:connector-curvature="0" />
      <path
         transform="scale(1,-1)"
         style="opacity:1;fill:none;fill-opacity:1;stroke:#00b0f0;stroke-width:0.2109375;stroke-linecap:butt;stroke-linejoin:round;stroke-miterlimit:4;stroke-dasharray:none;stroke-dashoffset:0;stroke-opacity:1;paint-order:stroke fill markers"
         d="m 30.018946,-71.982422 h 47.962112 c 1.117413,0 2.016991,0.899578 2.016991,2.016991 v 31.930862 c 0,1.117413 -0.899578,2.016991 -2.016991,2.016991 H 30.018946 c -1.117413,0 -2.016991,-0.899578 -2.016991,-2.016991 v -31.930862 c 0,-1.117413 0.899578,-2.016991 2.016991,-2.016991 z"
         id="rect1437" />
      <path
         transform="matrix(0,1,1,0,0,0)"
         style="opacity:1;fill:none;fill-opacity:1;stroke:#00b0f0;stroke-width:0.2109375;stroke-linecap:butt;stroke-linejoin:round;stroke-miterlimit:4;stroke-dasharray:none;stroke-dashoffset:0;stroke-opacity:1;paint-order:stroke fill markers"
         d="m 30.018946,36.017578 h 47.962112 c 1.117413,0 2.016991,0.899578 2.016991,2.016991 v 31.930862 c 0,1.117413 -0.899578,2.016991 -2.016991,2.016991 H 30.018946 c -1.117413,0 -2.016991,-0.899578 -2.016991,-2.016991 V 38.034569 c 0,-1.117413 0.899578,-2.016991 2.016991,-2.016991 z"
         id="rect1444" />
      <path
         transform="matrix(0,1,1,0,0,0)"
         style="opacity:1;fill:none;fill-opacity:1;stroke:#00b0f0;stroke-width:0.21093751;stroke-linecap:butt;stroke-linejoin:round;stroke-miterlimit:4;stroke-dasharray:none;stroke-dashoffset:0;stroke-opacity:1;paint-order:stroke fill markers"
         d="m 34.026756,32.009766 h 39.946488 c 1.117413,0 2.01699,0.899577 2.01699,2.01699 v 39.946488 c 0,1.117413 -0.899577,2.01699 -2.01699,2.01699 H 34.026756 c -1.117413,0 -2.01699,-0.899577 -2.01699,-2.01699 V 34.026756 c 0,-1.117413 0.899577,-2.01699 2.01699,-2.01699 z"
         id="rect1446" />
    </g>
  </g>
</svg>
